# xmcd
#
# Track frame offsets:
# 150
# 26684
# 51119
# 88869
# 110028
# 126345
# 146825
# 168471
#
# Disc length: 2478 seconds
#
#
# Revision: 0
# Processed by: cddbd v1.5.2PL0 Copyright (c) Steve Scherf et al.
# Submitted via: FreeRIP 2.944 
#
DISCID=7509ac08
DTITLE=Dulce Pontes - Momentos CD2
DYEAR=2009
DGENRE=Pop
TTITLE0=Cancao De Embalar
TTITLE1=O Infante
TTITLE2=No Ano Que Vem
TTITLE3=Por Esse Mar
TTITLE4=Todos Somos Um
TTITLE5=Amor A Portugal
TTITLE6=O Mar e Tu
TTITLE7=Nu
EXTD=
EXTT0=
EXTT1=
EXTT2=
EXTT3=
EXTT4=
EXTT5=
EXTT6=
EXTT7=
PLAYORDER=
